# xmcd CD database file
#
# Track frame offsets:
#	150
#	22626
#	33354
#	57749
#	83663
#	108930
#	139393
#	164739
#	188147
#	208695
#	225988
#	242847
#	255507
#	271758
#	288435
#	306951
#
# Disc length: 4311 seconds
#
# Revision: 5
# Processed by: cddbd v1.5.2PL0 Copyright (c) Steve Scherf et al.
# Submitted via: CDex 1.70beta2
#
DISCID=da10d510
DTITLE=Rory Gallagher - A Blue Day For The Blues
DYEAR=1995
DGENRE=Blues
TTITLE0=I Ain't No Saint
TTITLE1=The Loop
TTITLE2=Calling Card
TTITLE3=As The Crow Flies
TTITLE4=Off The Handle
TTITLE5=Bullfrog Blues
TTITLE6=(Back On My) Stomping Ground
TTITLE7=Empire State Express
TTITLE8=Continental Op (To: Dashiel Hammet)
TTITLE9=Shin Kicker
TTITLE10=Public Enemy No. 1
TTITLE11=Pistol Slapper Blues
TTITLE12=Don't Start Me Talkin'
TTITLE13=Nothing But The Devil
TTITLE14=Alexis
TTITLE15=Barley and Grape Rag
EXTD=YEAR: 1995
EXTT0=
EXTT1=
EXTT2=
EXTT3=
EXTT4=
EXTT5=
EXTT6=
EXTT7=
EXTT8=
EXTT9=
EXTT10=
EXTT11=
EXTT12=
EXTT13=
EXTT14=
EXTT15=
PLAYORDER=
